<svg width="40" height="40" viewBox="0 0 40 40" fill="none" xmlns="http://www.w3.org/2000/svg">
    <!-- Circle background -->
    <circle cx="20" cy="20" r="18" fill="#E6F6FF" stroke="#4A90E2" stroke-width="2"/>

    <!-- Person icon -->
    <path d="M20 15C22.7614 15 25 17.2386 25 20C25 22.7614 22.7614 25 20 25C17.2386 25 15 22.7614 15 20C15 17.2386 17.2386 15 20 15ZM20 13C16.6863 13 14 15.6863 14 19C14 22.3137 16.6863 25 20 25C23.3137 25 26 22.3137 26 19C26 15.6863 23.3137 13 20 13ZM20 10C14.4772 10 10 14.4772 10 20C10 25.5228 14.4772 30 20 30C25.5228 30 30 25.5228 30 20C30 14.4772 25.5228 10 20 10Z" fill="#4A90E2"/>
</svg>